<?xml version="1.0" standalone="no"?>
<!DOCTYPE svg PUBLIC "-//W3C//DTD SVG 20010904//EN"
 "http://www.w3.org/TR/2001/REC-SVG-20010904/DTD/svg10.dtd">
<svg version="1.0" xmlns="http://www.w3.org/2000/svg"
 width="1254.000000pt" height="1254.000000pt" viewBox="0 0 1254.000000 1254.000000"
 preserveAspectRatio="xMidYMid meet">

<g transform="translate(0.000000,1254.000000) scale(0.100000,-0.100000)"
fill="#000000" stroke="none">
<path d="M2197 11092 c-43 -249 -61 -405 -83 -706 -18 -253 -16 -749 5 -951 6
-60 16 -153 21 -205 50 -485 159 -938 344 -1430 137 -367 397 -840 652 -1186
292 -398 503 -616 1129 -1173 409 -363 741 -714 896 -945 65 -98 127 -230 140
-303 17 -88 4 -263 -25 -348 -54 -159 -145 -322 -279 -500 -74 -98 -291 -313
-367 -362 -30 -20 -71 -48 -90 -63 -19 -15 -48 -36 -65 -46 -28 -18 -27 -15
12 31 279 334 305 367 407 520 83 124 211 397 204 434 -3 12 -19 2 -63 -40
-87 -80 -173 -152 -325 -271 -445 -348 -617 -540 -882 -978 -83 -138 -194
-336 -283 -505 -32 -60 -61 -114 -65 -120 -28 -36 -326 -635 -316 -635 1 0 34
42 72 92 415 560 899 1023 1461 1401 142 95 315 201 448 272 39 21 90 49 115
63 57 31 646 326 760 380 105 50 173 80 320 144 251 108 560 260 732 359 66
38 122 69 124 69 3 0 17 8 32 19 15 10 77 51 137 91 131 87 339 246 450 343
263 232 533 564 676 832 56 106 109 213 109 221 0 3 16 42 36 87 20 45 42 100
49 122 8 22 26 74 40 115 37 107 70 219 99 345 14 61 30 124 35 140 5 17 12
46 16 65 7 39 35 162 67 290 40 164 93 321 141 415 77 153 213 312 343 401 32
22 149 103 259 179 286 198 350 242 440 304 44 30 120 82 168 115 48 34 109
74 135 91 26 16 90 60 142 97 52 37 115 81 140 98 170 118 231 162 227 167 -3
2 -184 -86 -403 -195 -365 -183 -477 -232 -619 -275 -89 -27 -108 -29 -300
-28 -205 2 -293 -10 -412 -55 -268 -101 -434 -277 -512 -542 -25 -85 -29 -121
-41 -377 -13 -265 -24 -374 -51 -500 -41 -193 -138 -428 -242 -584 -237 -354
-564 -609 -1067 -831 -144 -64 -383 -150 -413 -150 -7 0 -41 40 -75 89 -155
217 -454 527 -715 742 -34 28 -73 61 -87 73 -30 26 -281 228 -430 346 -156
125 -352 283 -370 300 -9 8 -54 47 -100 85 -278 233 -687 629 -945 915 -211
235 -456 539 -614 765 -173 246 -481 727 -481 750 0 3 -28 54 -62 113 -176
305 -381 750 -525 1142 -114 310 -233 722 -233 804 0 14 -4 27 -8 30 -5 3 -21
-65 -35 -152z"/>
<path d="M4548 9384 c-11 -17 -67 -218 -87 -309 -47 -214 -67 -564 -42 -729 6
-34 15 -97 21 -141 6 -44 17 -100 25 -125 8 -25 26 -85 41 -135 14 -49 35
-112 46 -140 11 -27 25 -63 31 -80 20 -51 112 -228 152 -296 159 -261 426
-542 770 -808 139 -107 346 -273 519 -415 250 -206 648 -630 795 -848 18 -27
35 -48 38 -48 18 0 -89 347 -147 475 -167 371 -255 506 -745 1150 -54 72 -117
153 -139 182 -228 292 -519 721 -696 1028 -10 17 -41 70 -69 119 -152 261
-341 662 -432 918 -74 209 -75 212 -81 202z"/>
</g>
</svg>
